<svg width="640" height="480" xmlns="http://www.w3.org/2000/svg">
 <!-- Created with SVG-edit - http://svg-edit.googlecode.com/ -->

 <g>
  <title>background</title>
  <rect fill="none" id="canvas_background" height="402" width="582" y="-1" x="-1"/>
 </g>
 <g>
  <title>Layer 1</title>
  <ellipse ry="67" rx="67" id="svg_3" cy="234.3564" cx="204.165001" stroke-linecap="null" stroke-linejoin="null" stroke-dasharray="null" stroke-width="null" stroke="#000000" fill="#ffd4aa"/>
  <ellipse opacity="0.65" ry="64" rx="64" id="svg_5" cy="234.3564" cx="204.165001" stroke-linecap="null" stroke-linejoin="null" stroke-dasharray="null" stroke-width="null" stroke="#d60808" fill="#ff0000"/>
  <path id="svg_6" d="m230.21732,140.5881c-0.52475,0.0166 -1.03185,0.06082 -1.55876,0.1133c-8.43057,0.83972 -15.87145,6.19001 -19.6515,14.1623l-2.00413,6.03314c0.43237,-2.09078 1.09627,-4.11846 2.00413,-6.03314c-6.74123,-6.98447 -16.20323,-10.20822 -25.55254,-8.69565c-9.34932,1.51257 -17.46879,7.57864 -21.90614,16.37162c-12.52673,-7.71518 -28.14154,-7.24791 -40.22158,1.21796c-12.08003,8.46587 -18.51867,23.45537 -16.56182,38.57809l1.28041,6.14644c-0.5786,-2.01363 -1.01071,-4.06214 -1.28041,-6.14644l-0.19485,0.5665c-10.5007,1.14435 -19.11257,9.29175 -21.34944,20.19544c-2.23688,10.90369 2.41441,22.09163 11.52368,27.72978l14.22369,3.45561c-4.96654,0.40881 -9.92499,-0.79495 -14.22369,-3.45561c-7.0263,7.87064 -8.64315,19.52295 -4.00823,29.14602c4.63491,9.62305 14.53341,15.16404 24.74531,13.90737l6.2072,-1.64284c-1.99719,0.83596 -4.0714,1.38 -6.2072,1.64284c5.79722,10.67216 15.40976,18.45714 26.69376,21.555c11.284,3.09787 23.26952,1.267 33.26282,-5.07009c8.15254,12.85667 22.62214,19.60948 37.1319,17.33464c14.50974,-2.27485 26.47886,-13.1834 30.72983,-27.98469l1.47525,-8.27078c-0.22089,2.80983 -0.70022,5.57229 -1.47525,8.27078c9.98,6.54475 22.53369,6.91357 32.8453,0.96304c10.31162,-5.95054 16.74579,-17.29746 16.84018,-29.65585l-3.69678,-18.46519l-14.56298,-12.49359c11.26084,7.05397 18.36023,17.80138 18.25976,30.95878c13.38972,0.14033 24.76333,-11.33305 29.86696,-24.50076c5.10362,-13.16774 3.17302,-28.17969 -5.06599,-39.45616c3.41739,-8.39582 3.21465,-17.946 -0.55668,-26.17193c-3.77135,-8.22592 -10.72787,-14.33983 -19.09483,-16.73983c-1.87241,-10.90245 -9.59052,-19.6723 -19.79068,-22.54638c-10.20015,-2.87408 -21.06146,0.66992 -27.89066,9.12052l-4.14742,6.99618c1.05976,-2.52998 2.44385,-4.88818 4.14742,-6.99618c-4.81408,-6.64155 -12.36476,-10.38915 -20.23605,-10.14021l0.00001,-0.00003l0,0z" opacity="0.65" stroke-linecap="null" stroke-linejoin="null" stroke-dasharray="null" stroke-width="null" stroke="#d60808" fill="#00007f"/>
  <text stroke="#d60808" transform="matrix(2.198706289901466,0,0,2.4264522321955013,-171.33247831196516,-292.26202787096804) " xml:space="preserve" text-anchor="middle" font-family="serif" font-size="24" id="svg_7" y="224.807587" x="170.796909" opacity="0.65" stroke-linecap="null" stroke-linejoin="null" stroke-dasharray="null" stroke-width="null" fill="#000000">NDL</text>
 </g>
</svg>